<mxfile host="56780851-2b90-426a-ad79-adc040cc3404" modified="2020-09-13T19:48:39.888Z" agent="5.0 (X11; Linux x86_64) AppleWebKit/537.36 (KHTML, like Gecko) Code/1.49.0 Chrome/83.0.4103.122 Electron/9.2.1 Safari/537.36" etag="kYszQzoLK9XHgag_Xa0o" version="13.1.3">
    <diagram id="6hGFLwfOUW9BJ-s0fimq" name="Page-1">
        <mxGraphModel dx="1506" dy="743" grid="0" gridSize="10" guides="0" tooltips="1" connect="1" arrows="1" fold="1" page="1" pageScale="1" pageWidth="827" pageHeight="1169" math="0" shadow="0">
            <root>
                <mxCell id="0"/>
                <mxCell id="1" parent="0"/>
                <mxCell id="29" value="" style="group;fontStyle=1" parent="1" vertex="1" connectable="0">
                    <mxGeometry x="30" y="60" width="500" height="260" as="geometry"/>
                </mxCell>
                <mxCell id="2" value="" style="rounded=1;whiteSpace=wrap;html=1;" parent="29" vertex="1">
                    <mxGeometry width="500" height="260" as="geometry"/>
                </mxCell>
                <mxCell id="3" value="&lt;font style=&quot;font-size: 22px&quot;&gt;&lt;b&gt;UI Design Client&lt;/b&gt;&lt;/font&gt;" style="text;html=1;strokeColor=none;fillColor=none;align=center;verticalAlign=middle;whiteSpace=wrap;rounded=0;" parent="29" vertex="1">
                    <mxGeometry x="160" y="10" width="180" height="20" as="geometry"/>
                </mxCell>
                <mxCell id="4" value="&lt;font style=&quot;font-size: 14px&quot;&gt;Code Editor&lt;/font&gt;" style="rounded=0;whiteSpace=wrap;html=1;fillColor=#f8cecc;strokeColor=#b85450;" parent="29" vertex="1">
                    <mxGeometry x="360" y="180" width="120" height="60" as="geometry"/>
                </mxCell>
                <mxCell id="5" value="&lt;font style=&quot;font-size: 14px&quot;&gt;External Representation (mxGraph)&lt;/font&gt;" style="rounded=0;whiteSpace=wrap;html=1;fillColor=#dae8fc;strokeColor=#6c8ebf;" parent="29" vertex="1">
                    <mxGeometry x="230" y="180" width="120" height="60" as="geometry"/>
                </mxCell>
                <mxCell id="6" value="&lt;font style=&quot;font-size: 14px&quot;&gt;Internal Representation (pdl,ndl)&lt;/font&gt;" style="rounded=0;whiteSpace=wrap;html=1;fillColor=#dae8fc;strokeColor=#6c8ebf;" parent="29" vertex="1">
                    <mxGeometry x="20" y="180" width="120" height="60" as="geometry"/>
                </mxCell>
                <mxCell id="7" value="" style="endArrow=none;html=1;exitX=1;exitY=0.5;exitDx=0;exitDy=0;entryX=0;entryY=0.5;entryDx=0;entryDy=0;" parent="29" source="8" target="5" edge="1">
                    <mxGeometry width="50" height="50" relative="1" as="geometry">
                        <mxPoint x="470" y="230" as="sourcePoint"/>
                        <mxPoint x="520" y="180" as="targetPoint"/>
                    </mxGeometry>
                </mxCell>
                <mxCell id="8" value="Bind Using Reference" style="text;html=1;strokeColor=none;fillColor=none;align=center;verticalAlign=middle;whiteSpace=wrap;rounded=0;" parent="29" vertex="1">
                    <mxGeometry x="165" y="200" width="40" height="20" as="geometry"/>
                </mxCell>
                <mxCell id="9" value="" style="endArrow=none;html=1;exitX=1;exitY=0.5;exitDx=0;exitDy=0;entryX=0;entryY=0.5;entryDx=0;entryDy=0;" parent="29" source="6" target="8" edge="1">
                    <mxGeometry width="50" height="50" relative="1" as="geometry">
                        <mxPoint x="220" y="130" as="sourcePoint"/>
                        <mxPoint x="280" y="130" as="targetPoint"/>
                    </mxGeometry>
                </mxCell>
                <mxCell id="10" value="&lt;font style=&quot;font-size: 14px&quot;&gt;Control Panel (Wizard)&lt;/font&gt;" style="rounded=0;whiteSpace=wrap;html=1;fillColor=#dae8fc;strokeColor=#6c8ebf;" parent="29" vertex="1">
                    <mxGeometry x="140" y="60" width="120" height="60" as="geometry"/>
                </mxCell>
                <mxCell id="15" value="" style="endArrow=classic;html=1;exitX=0;exitY=0.5;exitDx=0;exitDy=0;entryX=0.5;entryY=0;entryDx=0;entryDy=0;" parent="29" source="10" target="6" edge="1">
                    <mxGeometry width="50" height="50" relative="1" as="geometry">
                        <mxPoint x="450" y="310" as="sourcePoint"/>
                        <mxPoint x="500" y="260" as="targetPoint"/>
                        <Array as="points">
                            <mxPoint x="80" y="90"/>
                        </Array>
                    </mxGeometry>
                </mxCell>
                <mxCell id="16" value="Create new UI Component via Wizard" style="text;html=1;strokeColor=none;fillColor=none;align=center;verticalAlign=middle;whiteSpace=wrap;rounded=0;" parent="29" vertex="1">
                    <mxGeometry x="30" y="100" width="100" height="20" as="geometry"/>
                </mxCell>
                <mxCell id="18" value="&lt;font style=&quot;font-size: 14px&quot;&gt;App Setting&lt;/font&gt;" style="rounded=0;whiteSpace=wrap;html=1;fillColor=#f8cecc;strokeColor=#b85450;" parent="29" vertex="1">
                    <mxGeometry x="290" y="60" width="120" height="60" as="geometry"/>
                </mxCell>
                <mxCell id="19" value="" style="endArrow=classic;html=1;entryX=0.5;entryY=0;entryDx=0;entryDy=0;exitX=0.5;exitY=1;exitDx=0;exitDy=0;fillColor=#d80073;strokeColor=#A50040;" parent="29" source="18" target="5" edge="1">
                    <mxGeometry width="50" height="50" relative="1" as="geometry">
                        <mxPoint x="400" y="150" as="sourcePoint"/>
                        <mxPoint x="500" y="260" as="targetPoint"/>
                        <Array as="points">
                            <mxPoint x="350" y="160"/>
                            <mxPoint x="290" y="160"/>
                        </Array>
                    </mxGeometry>
                </mxCell>
                <mxCell id="22" value="Dynamically Change Style" style="text;html=1;strokeColor=none;fillColor=none;align=center;verticalAlign=middle;whiteSpace=wrap;rounded=0;fontStyle=1" parent="29" vertex="1">
                    <mxGeometry x="310" y="140" width="40" height="20" as="geometry"/>
                </mxCell>
                <mxCell id="90" value="" style="endArrow=classic;html=1;exitX=0;exitY=0.5;exitDx=0;exitDy=0;entryX=0.5;entryY=0;entryDx=0;entryDy=0;fillColor=#d80073;strokeColor=#A50040;" edge="1" parent="29" source="18" target="6">
                    <mxGeometry width="50" height="50" relative="1" as="geometry">
                        <mxPoint x="535" y="388" as="sourcePoint"/>
                        <mxPoint x="585" y="338" as="targetPoint"/>
                        <Array as="points">
                            <mxPoint x="271" y="90"/>
                            <mxPoint x="271" y="150"/>
                            <mxPoint x="80" y="150"/>
                        </Array>
                    </mxGeometry>
                </mxCell>
                <mxCell id="91" value="Set Service Component Info" style="text;html=1;strokeColor=none;fillColor=none;align=center;verticalAlign=middle;whiteSpace=wrap;rounded=0;fontStyle=1" vertex="1" parent="29">
                    <mxGeometry x="174" y="128" width="40" height="20" as="geometry"/>
                </mxCell>
                <mxCell id="48" value="&lt;font&gt;&lt;b style=&quot;font-size: 20px&quot;&gt;Database&lt;/b&gt;&lt;br&gt;&lt;font style=&quot;font-size: 15px&quot;&gt;(Store pdl ndl template)&lt;/font&gt;&lt;br&gt;&lt;/font&gt;" style="shape=cylinder;whiteSpace=wrap;html=1;boundedLbl=1;backgroundOutline=1;" parent="1" vertex="1">
                    <mxGeometry x="150" y="760" width="166" height="110" as="geometry"/>
                </mxCell>
                <mxCell id="58" value="&lt;font style=&quot;font-size: 16px&quot;&gt;&lt;b&gt;CRUD Database&lt;/b&gt;&lt;/font&gt;" style="text;html=1;strokeColor=none;fillColor=none;align=center;verticalAlign=middle;whiteSpace=wrap;rounded=0;" parent="1" vertex="1">
                    <mxGeometry x="165" y="720" width="136" height="20" as="geometry"/>
                </mxCell>
                <mxCell id="60" value="" style="group" parent="1" vertex="1" connectable="0">
                    <mxGeometry x="25" y="370" width="510" height="310" as="geometry"/>
                </mxCell>
                <mxCell id="23" value="" style="rounded=1;whiteSpace=wrap;html=1;" parent="60" vertex="1">
                    <mxGeometry width="510" height="310" as="geometry"/>
                </mxCell>
                <mxCell id="24" value="&lt;font size=&quot;1&quot;&gt;&lt;b style=&quot;font-size: 22px&quot;&gt;UI Design Server&lt;/b&gt;&lt;/font&gt;" style="text;html=1;strokeColor=none;fillColor=none;align=center;verticalAlign=middle;whiteSpace=wrap;rounded=0;" parent="60" vertex="1">
                    <mxGeometry x="160" y="10" width="182.5" height="20" as="geometry"/>
                </mxCell>
                <mxCell id="45" value="&lt;font&gt;&lt;span style=&quot;font-size: 16px&quot;&gt;Template Engine&lt;/span&gt;&lt;br&gt;&lt;font style=&quot;font-size: 12px&quot;&gt;(output ts,html,css file,&lt;br&gt;using FreeMarker)&lt;/font&gt;&lt;br&gt;&lt;/font&gt;" style="rounded=0;whiteSpace=wrap;html=1;fillColor=#dae8fc;strokeColor=#6c8ebf;" parent="60" vertex="1">
                    <mxGeometry x="20" y="90" width="130" height="60" as="geometry"/>
                </mxCell>
                <mxCell id="47" value="&lt;span style=&quot;font-size: 16px&quot;&gt;&lt;br&gt;&lt;/span&gt;" style="rounded=0;whiteSpace=wrap;html=1;" parent="60" vertex="1">
                    <mxGeometry x="180" y="50" width="290" height="240" as="geometry"/>
                </mxCell>
                <mxCell id="49" value="&lt;span style=&quot;font-size: 16px&quot;&gt;Repository&lt;/span&gt;&lt;br style=&quot;font-size: 16px&quot;&gt;&lt;span style=&quot;font-size: 16px&quot;&gt;(Access Database)&lt;/span&gt;" style="text;html=1;strokeColor=none;fillColor=none;align=center;verticalAlign=middle;whiteSpace=wrap;rounded=0;" parent="60" vertex="1">
                    <mxGeometry x="235" y="70" width="160" height="20" as="geometry"/>
                </mxCell>
                <mxCell id="50" value="&lt;font style=&quot;font-size: 16px&quot;&gt;Page Description Language Dao&lt;/font&gt;" style="rounded=0;whiteSpace=wrap;html=1;fillColor=#dae8fc;strokeColor=#6c8ebf;" parent="60" vertex="1">
                    <mxGeometry x="190" y="110" width="130" height="80" as="geometry"/>
                </mxCell>
                <mxCell id="51" value="&lt;font style=&quot;font-size: 14px&quot;&gt;Navigation Description Language Dao&lt;/font&gt;" style="rounded=0;whiteSpace=wrap;html=1;fillColor=#dae8fc;strokeColor=#6c8ebf;" parent="60" vertex="1">
                    <mxGeometry x="334" y="110" width="120" height="80" as="geometry"/>
                </mxCell>
                <mxCell id="52" value="&lt;font style=&quot;font-size: 16px&quot;&gt;Template Dao&lt;/font&gt;" style="rounded=0;whiteSpace=wrap;html=1;fillColor=#dae8fc;strokeColor=#6c8ebf;" parent="60" vertex="1">
                    <mxGeometry x="191.25" y="200" width="128.75" height="80" as="geometry"/>
                </mxCell>
                <mxCell id="53" value="" style="endArrow=classic;html=1;exitX=1;exitY=0.5;exitDx=0;exitDy=0;entryX=0;entryY=0.5;entryDx=0;entryDy=0;" parent="60" source="45" target="52" edge="1">
                    <mxGeometry width="50" height="50" relative="1" as="geometry">
                        <mxPoint x="220" y="130" as="sourcePoint"/>
                        <mxPoint x="270" y="80" as="targetPoint"/>
                        <Array as="points">
                            <mxPoint x="170" y="120"/>
                            <mxPoint x="170" y="240"/>
                        </Array>
                    </mxGeometry>
                </mxCell>
                <mxCell id="55" value="&lt;span style=&quot;font-size: 16px&quot;&gt;Servie Dao&lt;/span&gt;" style="rounded=0;whiteSpace=wrap;html=1;fillColor=#f8cecc;strokeColor=#b85450;" parent="60" vertex="1">
                    <mxGeometry x="334" y="200" width="120" height="80" as="geometry"/>
                </mxCell>
                <mxCell id="64" value="" style="endArrow=classic;html=1;exitX=0.5;exitY=1;exitDx=0;exitDy=0;entryX=0.5;entryY=0;entryDx=0;entryDy=0;" parent="1" source="6" target="45" edge="1">
                    <mxGeometry width="50" height="50" relative="1" as="geometry">
                        <mxPoint x="300" y="410" as="sourcePoint"/>
                        <mxPoint x="350" y="360" as="targetPoint"/>
                    </mxGeometry>
                </mxCell>
                <mxCell id="67" value="" style="endArrow=classic;html=1;exitX=0.5;exitY=1;exitDx=0;exitDy=0;entryX=0.25;entryY=0;entryDx=0;entryDy=0;" parent="1" source="6" target="50" edge="1">
                    <mxGeometry width="50" height="50" relative="1" as="geometry">
                        <mxPoint x="300" y="460" as="sourcePoint"/>
                        <mxPoint x="350" y="410" as="targetPoint"/>
                        <Array as="points">
                            <mxPoint x="110" y="410"/>
                            <mxPoint x="248" y="410"/>
                        </Array>
                    </mxGeometry>
                </mxCell>
                <mxCell id="68" value="" style="endArrow=classic;html=1;exitX=0.5;exitY=1;exitDx=0;exitDy=0;entryX=0.5;entryY=0;entryDx=0;entryDy=0;" parent="1" source="5" target="51" edge="1">
                    <mxGeometry width="50" height="50" relative="1" as="geometry">
                        <mxPoint x="300" y="460" as="sourcePoint"/>
                        <mxPoint x="350" y="410" as="targetPoint"/>
                        <Array as="points">
                            <mxPoint x="320" y="350"/>
                            <mxPoint x="419" y="350"/>
                        </Array>
                    </mxGeometry>
                </mxCell>
                <mxCell id="69" value="" style="endArrow=classic;startArrow=classic;html=1;exitX=1;exitY=0.5;exitDx=0;exitDy=0;entryX=1;entryY=0.5;entryDx=0;entryDy=0;fillColor=#d80073;strokeColor=#A50040;" parent="1" source="55" target="4" edge="1">
                    <mxGeometry width="50" height="50" relative="1" as="geometry">
                        <mxPoint x="640" y="450" as="sourcePoint"/>
                        <mxPoint x="690" y="400" as="targetPoint"/>
                        <Array as="points">
                            <mxPoint x="600" y="610"/>
                            <mxPoint x="600" y="270"/>
                        </Array>
                    </mxGeometry>
                </mxCell>
                <mxCell id="70" value="&lt;font&gt;&lt;span style=&quot;font-weight: bold ; font-size: 20px&quot;&gt;Database&lt;/span&gt;&lt;br&gt;&lt;font style=&quot;font-size: 13px&quot;&gt;(Store Service Component Source code)&lt;/font&gt;&lt;br&gt;&lt;/font&gt;" style="shape=cylinder;whiteSpace=wrap;html=1;boundedLbl=1;backgroundOutline=1;" parent="1" vertex="1">
                    <mxGeometry x="340" y="760" width="166" height="110" as="geometry"/>
                </mxCell>
                <mxCell id="71" value="" style="endArrow=classic;startArrow=classic;html=1;entryX=0.25;entryY=1;entryDx=0;entryDy=0;exitX=0.5;exitY=0;exitDx=0;exitDy=0;" parent="1" source="48" target="47" edge="1">
                    <mxGeometry width="50" height="50" relative="1" as="geometry">
                        <mxPoint x="520" y="460" as="sourcePoint"/>
                        <mxPoint x="570" y="410" as="targetPoint"/>
                        <Array as="points">
                            <mxPoint x="233" y="710"/>
                            <mxPoint x="278" y="710"/>
                        </Array>
                    </mxGeometry>
                </mxCell>
                <mxCell id="73" value="" style="endArrow=classic;startArrow=classic;html=1;entryX=0.75;entryY=1;entryDx=0;entryDy=0;exitX=0.5;exitY=0;exitDx=0;exitDy=0;" parent="1" source="70" target="47" edge="1">
                    <mxGeometry width="50" height="50" relative="1" as="geometry">
                        <mxPoint x="520" y="870" as="sourcePoint"/>
                        <mxPoint x="570" y="820" as="targetPoint"/>
                    </mxGeometry>
                </mxCell>
                <mxCell id="74" value="&lt;font style=&quot;font-size: 16px&quot;&gt;&lt;b&gt;CRUD Database&lt;/b&gt;&lt;/font&gt;" style="text;html=1;strokeColor=none;fillColor=none;align=center;verticalAlign=middle;whiteSpace=wrap;rounded=0;" parent="1" vertex="1">
                    <mxGeometry x="355" y="720" width="136" height="20" as="geometry"/>
                </mxCell>
                <mxCell id="78" value="" style="endArrow=classic;startArrow=classic;html=1;exitX=0.5;exitY=1;exitDx=0;exitDy=0;entryX=0.5;entryY=1;entryDx=0;entryDy=0;" parent="1" source="48" target="75" edge="1">
                    <mxGeometry width="50" height="50" relative="1" as="geometry">
                        <mxPoint x="520" y="560" as="sourcePoint"/>
                        <mxPoint x="570" y="510" as="targetPoint"/>
                        <Array as="points">
                            <mxPoint x="233" y="920"/>
                            <mxPoint x="825" y="920"/>
                        </Array>
                    </mxGeometry>
                </mxCell>
                <mxCell id="83" value="" style="endArrow=classic;html=1;exitX=1;exitY=0.5;exitDx=0;exitDy=0;entryX=0;entryY=0.5;entryDx=0;entryDy=0;" parent="1" source="79" target="81" edge="1">
                    <mxGeometry width="50" height="50" relative="1" as="geometry">
                        <mxPoint x="720" y="640" as="sourcePoint"/>
                        <mxPoint x="770" y="590" as="targetPoint"/>
                    </mxGeometry>
                </mxCell>
                <mxCell id="85" value="Generate Web App" style="text;html=1;strokeColor=none;fillColor=none;align=center;verticalAlign=middle;whiteSpace=wrap;rounded=0;" parent="1" vertex="1">
                    <mxGeometry x="1000" y="610" width="40" height="20" as="geometry"/>
                </mxCell>
                <mxCell id="87" value="&lt;font style=&quot;font-size: 20px&quot;&gt;Read Template From database&lt;/font&gt;" style="text;html=1;strokeColor=none;fillColor=none;align=center;verticalAlign=middle;whiteSpace=wrap;rounded=0;" parent="1" vertex="1">
                    <mxGeometry x="470" y="930" width="304" height="20" as="geometry"/>
                </mxCell>
                <mxCell id="88" value="" style="group" parent="1" vertex="1" connectable="0">
                    <mxGeometry x="1070" y="522.5" width="240" height="150" as="geometry"/>
                </mxCell>
                <mxCell id="81" value="" style="rounded=1;whiteSpace=wrap;html=1;" parent="88" vertex="1">
                    <mxGeometry width="240" height="150" as="geometry"/>
                </mxCell>
                <mxCell id="84" value="&lt;font style=&quot;font-size: 20px&quot;&gt;Angular Web App&lt;/font&gt;" style="rounded=0;whiteSpace=wrap;html=1;" parent="88" vertex="1">
                    <mxGeometry x="30" y="35" width="180" height="82.5" as="geometry"/>
                </mxCell>
                <mxCell id="89" value="" style="group" parent="1" vertex="1" connectable="0">
                    <mxGeometry x="670" y="507" width="310" height="155" as="geometry"/>
                </mxCell>
                <mxCell id="75" value="" style="rounded=1;whiteSpace=wrap;html=1;" parent="89" vertex="1">
                    <mxGeometry width="310" height="155" as="geometry"/>
                </mxCell>
                <mxCell id="76" value="&lt;font size=&quot;1&quot;&gt;&lt;b style=&quot;font-size: 22px&quot;&gt;UI Composite Engine&lt;/b&gt;&lt;/font&gt;" style="text;html=1;strokeColor=none;fillColor=none;align=center;verticalAlign=middle;whiteSpace=wrap;rounded=0;" parent="89" vertex="1">
                    <mxGeometry x="25" y="15.5" width="240" height="5" as="geometry"/>
                </mxCell>
                <mxCell id="79" value="&lt;span style=&quot;font-size: 20px&quot;&gt;Renderer&lt;/span&gt;" style="rounded=0;whiteSpace=wrap;html=1;fillColor=#dae8fc;strokeColor=#6c8ebf;" parent="89" vertex="1">
                    <mxGeometry x="157" y="48" width="140" height="85" as="geometry"/>
                </mxCell>
                <mxCell id="80" value="&lt;span style=&quot;font-size: 20px&quot;&gt;Dependency&lt;/span&gt;" style="rounded=0;whiteSpace=wrap;html=1;fillColor=#dae8fc;strokeColor=#6c8ebf;" parent="89" vertex="1">
                    <mxGeometry x="10" y="48" width="140" height="85" as="geometry"/>
                </mxCell>
            </root>
        </mxGraphModel>
    </diagram>
</mxfile>